<svg viewBox="0 0 128.544 128.542" preserveAspectRatio="xMinYMin meet" fill="currentColor" id="compass"><path d="M64.272 0C28.775 0 0 28.775 0 64.272c0 35.496 28.775 64.27 64.272 64.27 35.497 0 64.272-28.774 64.272-64.27C128.544 28.775 99.768 0 64.272 0zm0 122.858c-32.357 0-58.587-26.23-58.587-58.586 0-32.357 26.23-58.586 58.587-58.586s58.586 26.23 58.586 58.586c0 32.356-26.23 58.586-58.586 58.586z" id="compass-outer"/><path d="M64.024 18.02c-11.957 11.65-19.53 28.818-19.53 47.982 0 19.164 7.573 36.333 19.53 47.98 11.957-11.647 19.53-28.816 19.53-47.98 0-19.164-7.574-36.333-19.53-47.98zM51.61 67.39c3.767-1.845 7.87-2.87 12.167-2.87 4.483 0 8.756 1.11 12.655 3.108-.335 13.264-4.747 25.88-12.41 35.742-7.705-9.92-12.125-22.63-12.413-35.98z" id="compass-inner"/></svg>
